<svg version="1.2" xmlns="http://www.w3.org/2000/svg" viewBox="0 0 258 95" width="258" height="95">
	<title>template</title>
	<style>
		.s0 { fill: #fffdfe } 
		.s1 { fill: #ebbd25 } 
		.s2 { fill: #1a1a1a } 
		.s3 { fill: #000000 } 
	</style>
	<path id="Background" class="s0" d="m-369-193h1280v720h-1280z"/>
	<path id="THE GALLERY" class="s1" aria-label="THE GALLERY"  d="m9 20.8h7.1v22.2h5.3v-22.2h7v-4.3h-19.4zm40 22.2h5.3v-26.5h-5.3v10.9h-11.4v-10.9h-5.3v26.5h5.3v-11.3h11.4zm26-26.5h-15.4v26.5h15.4v-4.3h-10.1v-7h8.9v-4.3h-8.9v-6.6h10.1z"/>
	<path id="THE GALLERY" class="s2" aria-label="THE GALLERY"  d="m101.1 16.1c-7.7 0-13.6 5.7-13.6 13.6 0 7.9 5.9 13.5 13.6 13.5 7.1 0 11.9-4.9 13-10.3v-4.6h-14.4v4h9.1c-0.8 3.8-3.4 6.1-7.5 6.1-4.9 0-8.3-3.3-8.3-8.7 0-5.3 3.3-8.7 8.1-8.7 2.8 0 5 1.2 6.2 3.5h6.1c-1.7-5.4-6.4-8.4-12.3-8.4zm34.9 26.9h5.6l-9.5-26.6h-6.2l-9.5 26.6h5.6l1.7-5.1h10.6zm-3.2-9.3h-7.7l3.8-11.1zm12.4-17.2v26.5h14.1v-4.2h-8.7v-22.3zm17.4 0v26.5h14.1v-4.2h-8.8v-22.3zm32.8 0h-15.3v26.5h15.3v-4.3h-10v-7h8.9v-4.2h-8.9v-6.7h10zm18.9 8.3c0 2.4-1.3 4-4.3 4h-4.4v-7.8h4.4c3 0 4.3 1.4 4.3 3.8zm-14-8.2v26.5h5.3v-10.4h2.5l5.9 10.4h6.1l-6.3-10.8c4.2-1.1 6-4.4 6-7.6 0-4.5-3.2-8.1-9.6-8.1zm31.2 17.2v9.3h5.3v-9.3l9-17.2h-5.9l-5.7 12.1-5.7-12.1h-6z"/>
	<path id="PAINTINGS &amp; PICTURE" class="s3" aria-label="PAINTINGS &amp; PICTURE"  d="m16.6 71v-6.3h3.1c2.7 0 3.7 1.2 3.7 3.2 0 1.9-1 3.1-3.7 3.1zm8.5-3.1c0-2.6-1.7-4.5-5.3-4.5h-4.7v15.6h1.5v-6.6h3.2c3.6 0 5.3-2 5.3-4.5zm13 11.1h1.6l-5.7-15.4h-1.7l-5.7 15.4h1.6l1.4-3.7h7.1zm-1.8-5h-6.2l3.1-8.4zm6 5h1.5v-15.6h-1.5zm15.3-15.6v13.1l-8.7-13.1h-1.5v15.6h1.5v-13.1l8.7 13.1h1.5v-15.6zm4 1.3h4.4v14.3h1.5v-14.3h4.3v-1.3h-10.2zm12.7 14.3h1.6v-15.6h-1.6zm15.3-15.6v13.1l-8.6-13.1h-1.6v15.6h1.6v-13.1l8.6 13.1h1.6v-15.6zm12.1-0.2c-4.4 0-7.7 3.3-7.7 8 0 4.7 3.3 8 7.7 8 4.3 0 7.3-3.2 7.6-7.3v-1.2h-8.2v1.3h6.5c-0.2 3.5-2.6 5.8-5.9 5.8-3.5 0-6.1-2.6-6.1-6.6 0-4 2.6-6.5 6.1-6.5 2.5 0 4.4 1.3 5.3 3.3h1.8c-1.1-3-3.8-4.8-7.1-4.8zm20.2 11.7c0-5.8-8.6-3-8.6-7.5 0-1.8 1.5-2.9 3.4-2.8 2.1 0 3.2 1.3 3.3 2.4h1.7c-0.2-2.1-2-3.8-5-3.8-3 0-5 1.8-5 4.2 0 5.9 8.6 3 8.6 7.6 0 1.6-1.3 2.8-3.4 2.8-2.6 0-3.5-1.5-3.7-2.8h-1.6c0.1 2.4 2.1 4.2 5.3 4.2 3.3 0 5-2.2 5-4.3zm18-8.3c0.1-2-1.5-3.4-3.7-3.4-2.4 0-3.9 1.3-3.9 3.3 0 1.2 0.4 2.1 1.5 3.2-2.4 1-3.7 2.7-3.7 4.8 0 2.9 2.1 4.8 5.3 4.8 2.2 0 3.8-0.8 5.3-2.5l2.2 2.2h2l-3.3-3.3c0.4-0.5 0.8-1.2 1.2-1.9l1.7-2.9h-1.6l-1.5 2.4c-0.3 0.5-0.5 1-0.8 1.4l-5.1-5.2c-1.1-1.2-1.7-2-1.7-3 0-1.2 0.9-2 2.3-2 1.2 0 2.3 0.7 2.2 2.1zm-4.5 11.3c-2.2 0-3.7-1.4-3.7-3.4 0-1.7 1-3 3.1-3.8l5 5.1c-1.3 1.4-2.6 2.1-4.4 2.1zm19.3-6.9v-6.3h3.2c2.6 0 3.6 1.2 3.6 3.2 0 1.9-1 3.1-3.6 3.1zm8.4-3.1c0-2.6-1.7-4.5-5.3-4.5h-4.7v15.6h1.6v-6.6h3.1c3.7 0 5.3-2 5.3-4.5zm2.6 11.1h1.6v-15.6h-1.6zm4.4-7.8c0 4.7 3.3 7.9 7.6 7.9 3.5 0 6.1-1.7 7.2-4.6h-1.8c-0.9 2-2.7 3.3-5.4 3.3-3.4 0-6-2.5-6-6.6 0-4.1 2.6-6.6 6-6.6 2.7 0 4.5 1.3 5.4 3.4h1.8c-1.1-3-3.7-4.8-7.2-4.8-4.3 0-7.6 3.3-7.6 8zm16.8-6.5h4.3v14.3h1.6v-14.3h4.3v-1.3h-10.2zm12.6 8.5c0 4.1 2.5 6 5.7 6 3.2 0 5.7-1.9 5.7-6v-9.8h-1.6v9.8c0 3.3-1.7 4.6-4.1 4.6-2.4 0-4.1-1.3-4.1-4.6v-9.8h-1.6zm23.2-5.2c0 1.9-1.1 3.2-3.7 3.2h-3.1v-6.4h3.1c2.6 0 3.7 1.2 3.7 3.2zm-8.4-4.6v15.6h1.6v-6.5h2.9l3.8 6.5h1.9l-4-6.6c2.6-0.5 3.8-2.3 3.8-4.4 0-2.6-1.7-4.6-5.3-4.6zm21.2 0h-8.1v15.6h8.1v-1.3h-6.5v-5.9h5.9v-1.3h-5.9v-5.8h6.5z"/>
</svg>